<svg width="47.99999999999999" height="47.99999999999999" xmlns="http://www.w3.org/2000/svg">

 <g>
  <title>background</title>
  <rect fill="none" id="canvas_background" height="402" width="582" y="-1" x="-1"/>
 </g>
 <g>
  <title>Layer 1</title>
  <path id="svg_1" fill="none" d="m0,0l48,0l0,48l-48,0l0,-48z"/>
  <path fill="#4c4c4c" id="svg_2" d="m25.92942,14l-4,0l0,8l-8,0l0,4l8,0l0,8l4,0l0,-8l8,0l0,-4l-8,0l0,-8zm-2,-10c-11.05,0 -20,8.95 -20,20s8.95,20 20,20s20,-8.95 20,-20s-8.95,-20 -20,-20zm0,36c-8.82,0 -16,-7.18 -16,-16s7.18,-16 16,-16s16,7.18 16,16s-7.18,16 -16,16z"/>
 </g>
</svg>